<?xml version="1.0" encoding="UTF-8" standalone="no"?>
<!-- Created with Inkscape (http://www.inkscape.org/) -->

<svg
   width="512"
   height="512"
   viewBox="0 0 512 512"
   version="1.1"
   id="svg1"
   inkscape:version="1.3.2 (091e20ef0f, 2023-11-25, custom)"
   sodipodi:docname="favicon.svg"
   inkscape:export-filename="favicon.png"
   inkscape:export-xdpi="4.5"
   inkscape:export-ydpi="4.5"
   xmlns:inkscape="http://www.inkscape.org/namespaces/inkscape"
   xmlns:sodipodi="http://sodipodi.sourceforge.net/DTD/sodipodi-0.dtd"
   xmlns="http://www.w3.org/2000/svg"
   xmlns:svg="http://www.w3.org/2000/svg">
  <sodipodi:namedview
     id="namedview1"
     pagecolor="#000000"
     bordercolor="#000000"
     borderopacity="0.25"
     inkscape:showpageshadow="2"
     inkscape:pageopacity="0.0"
     inkscape:pagecheckerboard="0"
     inkscape:deskcolor="#d1d1d1"
     inkscape:document-units="px"
     inkscape:zoom="1.4142136"
     inkscape:cx="436.63844"
     inkscape:cy="309.00566"
     inkscape:window-width="1904"
     inkscape:window-height="1028"
     inkscape:window-x="6"
     inkscape:window-y="6"
     inkscape:window-maximized="1"
     inkscape:current-layer="layer1"
     inkscape:export-bgcolor="#000000ff" />
  <defs
     id="defs1" />
  <g
     inkscape:label="Layer 1"
     inkscape:groupmode="layer"
     id="layer1">
    <path
       d="m 158.58397,367.05033 q -23.3192,0 -42.66916,-8.4346 -19.349971,-8.4346 -30.761491,-24.3115 Q 73.7418,318.42734 73.7418,296.10045 q 0,-29.76918 21.830732,-47.13453 22.326888,-17.36536 60.034518,-24.80766 37.70763,-7.93844 84.34601,-7.93844 v -13.39614 q 0,-11.41151 -3.96922,-24.80765 -3.47308,-13.39613 -15.38075,-23.31919 -11.41152,-9.92306 -36.21917,-9.92306 -22.32688,0 -36.71532,10.41922 -13.89229,9.92306 -17.86151,27.78456 L 89.618696,171.06989 q 10.419214,-29.27303 37.211474,-44.65377 26.79227,-15.38074 57.0576,-15.38074 64.49989,0 85.83447,39.69224 16.37305,-18.85382 39.19609,-29.27303 23.31919,-10.41921 50.60761,-10.41921 29.76918,0 51.59991,11.90767 22.32689,11.41152 36.71532,31.25764 14.88459,19.34997 21.33458,44.15762 6.94615,24.80765 4.96153,51.10376 H 284.60683 q 1.48846,30.76149 13.89229,48.62299 12.40382,17.86151 29.76918,25.30381 17.36535,6.94614 32.7461,6.94614 20.34227,0 34.23455,-6.44999 14.38844,-6.94614 23.3192,-17.86151 l 40.18839,11.90767 q -13.89228,21.33458 -38.69994,35.22687 -24.80765,13.89228 -59.0422,13.89228 -34.23456,0 -59.53837,-13.39613 -24.80765,-13.39613 -39.69224,-36.21917 -12.40382,21.33458 -38.20378,35.72302 -25.79996,13.89228 -64.99604,13.89228 z M 285.59914,216.21982 h 144.87668 q -0.49616,-17.36536 -9.42691,-33.24226 -8.4346,-15.87689 -24.3115,-25.79995 -15.38074,-10.41922 -37.21147,-10.41922 -18.35767,0 -34.73071,6.94615 -16.37305,6.94614 -26.79227,22.32688 -10.41921,15.38075 -12.40382,40.1884 z M 167.51472,334.30423 q 39.69224,0 57.55375,-20.34227 18.35766,-20.34227 18.35766,-56.56144 v -7.93845 q -56.56144,0 -90.29985,10.41921 -33.24225,9.92306 -33.24225,35.22687 0,17.36535 12.40383,28.28072 12.89997,10.91536 35.22686,10.91536 z"
       id="text1"
       style="font-size:496.153px;font-family:'Atkinson Hyperlegible';-inkscape-font-specification:'Atkinson Hyperlegible';fill:#ffffff;fill-opacity:1;stroke-width:43.0688;paint-order:stroke fill markers"
       transform="scale(0.93376113,1.0709377)"
       aria-label="æ" />
  </g>
</svg>
